<svg xmlns="http://www.w3.org/2000/svg" width="512" height="512" viewBox="0 0 512 512">
  <defs>
    <linearGradient id="heartGrad" x1="0%" y1="0%" x2="100%" y2="100%">
      <stop offset="0%" style="stop-color:#f0a0b0"/>
      <stop offset="100%" style="stop-color:#d4708a"/>
    </linearGradient>
    <linearGradient id="bgGrad" x1="0%" y1="0%" x2="100%" y2="100%">
      <stop offset="0%" style="stop-color:#fff5f2"/>
      <stop offset="100%" style="stop-color:#fce8e4"/>
    </linearGradient>
  </defs>
  <rect width="512" height="512" rx="80" fill="url(#bgGrad)"/>
  <path d="M256 400 C160 330 80 270 80 190 C80 130 130 80 180 80 C210 80 240 100 256 130 C272 100 302 80 332 80 C382 80 432 130 432 190 C432 270 352 330 256 400Z"
        fill="url(#heartGrad)" opacity="0.92"/>
  <path d="M256 370 C175 310 110 260 110 195 C110 145 150 110 190 110 C215 110 240 125 256 150 C272 125 297 110 322 110 C362 110 402 145 402 195 C402 260 337 310 256 370Z"
        fill="url(#heartGrad)" opacity="0.85"/>
</svg>
